<svg width="516" height="490" viewBox="0 0 516 490" fill="none" xmlns="http://www.w3.org/2000/svg">
<path d="M493.828 245C493.828 374.495 383.28 479.473 246.914 479.473C110.548 479.473 0 374.495 0 245C0 115.506 110.548 10.5277 246.914 10.5277C383.28 10.5277 493.828 115.506 493.828 245Z" fill="#383C6B"/>
<path d="M493.828 245C493.828 374.495 383.28 479.473 246.914 479.473C110.548 479.473 0 374.495 0 245C0 115.506 110.548 10.5277 246.914 10.5277C383.28 10.5277 493.828 115.506 493.828 245Z" fill="#0A3D3B"/>
<path d="M80.0423 119.909L125.032 126.911C124.969 127.319 128.236 152.262 107.619 172.621C99.7222 180.419 86.0458 178.292 81.18 168.509C68.2044 142.396 80.0265 119.999 80.0423 119.909Z" fill="#FFCD38"/>
<path d="M102.49 133.543C112.402 135.084 119.662 142.213 121.681 150.725C126.343 137.764 124.992 127.177 125.032 126.911L80.0462 119.909C80.0304 119.98 73.1568 133.042 75.6567 150.826C78.1408 139.555 89.8212 131.57 102.49 133.543Z" fill="#FFAC00"/>
<path d="M220.876 129.498H175.288C175.28 129.913 167.808 154.026 184.689 177.283C191.153 186.191 205.015 186.191 211.479 177.283C228.734 153.51 220.88 129.592 220.876 129.498Z" fill="#FFCD38"/>
<path d="M198.133 139.458C209.44 139.458 218.675 146.961 221.085 156.609C224.734 141.364 220.88 129.566 220.88 129.498H175.292C175.284 129.79 171.651 141.637 175.198 156.673C177.587 146.987 186.799 139.458 198.133 139.458Z" fill="#FFAC00"/>
<path d="M316.126 119.909L271.137 126.911C271.2 127.319 267.932 152.262 288.549 172.621C296.446 180.419 310.122 178.292 314.988 168.509C327.968 142.396 316.142 119.999 316.126 119.909Z" fill="#FFCD38"/>
<path d="M295.513 134.029C307.398 132.179 318.354 139.723 320.582 150.333C322.893 132.799 316.138 119.98 316.126 119.909L271.137 126.911C271.184 127.218 269.345 141.476 277.27 157.196C275.766 146.411 283.585 135.887 295.513 134.029Z" fill="#FFAC00"/>
<path d="M404.372 102.231L360.186 112.885C360.285 113.285 359.293 138.403 381.677 157.002C390.251 164.127 403.687 160.89 407.644 150.74C418.21 123.667 404.4 102.32 404.372 102.231Z" fill="#FFCD38"/>
<path d="M384.858 117.008C396.688 114.156 408.443 120.904 411.596 131.461C412.073 114.19 404.392 102.298 404.372 102.231L360.186 112.885C360.261 113.184 359.737 127.14 368.654 141.921C366.083 131.166 372.989 119.868 384.858 117.008Z" fill="#FFAC00"/>
<path d="M396.346 58.3455C332.015 76.6226 265.476 85.8789 198.086 85.8789C157.03 85.8789 116.292 82.4395 76.1803 75.6244C80.495 71.6991 84.9632 67.9158 89.5732 64.2933C125.339 69.7963 161.585 72.5702 198.086 72.5702C260.405 72.5702 321.984 64.4952 381.701 48.5322C386.713 51.6388 391.594 54.9137 396.346 58.3455Z" fill="#CCE6ED"/>
<path d="M143.365 77.8787C143.365 74.8094 145.192 72.144 147.865 70.8019C128.319 69.4299 108.875 67.2653 89.5771 64.2933C84.9671 67.9196 80.4989 71.6991 76.1803 75.6244C99.4072 79.5722 122.843 82.3797 146.424 84.047C144.554 82.5816 143.365 80.361 143.365 77.8787Z" fill="#81C5E9"/>
<path d="M108.135 94.4062C111.505 94.4062 114.481 92.0883 115.04 88.8247L118.382 69.4673C119.008 65.841 116.418 62.4166 112.599 61.8222C108.777 61.2278 105.175 63.6877 104.553 67.314L101.21 86.6714C100.584 90.3014 103.175 93.722 106.993 94.3164C107.375 94.3763 107.757 94.4062 108.135 94.4062Z" fill="#CCE6ED"/>
<path d="M198.641 101.408C202.511 101.408 205.649 98.4287 205.649 94.7538V74.144C205.649 70.4654 202.511 67.4897 198.641 67.4897C194.771 67.4897 191.634 70.4692 191.634 74.144V94.7538C191.634 98.4324 194.771 101.408 198.641 101.408Z" fill="#E8F8FC"/>
<path d="M288.065 94.5744C288.439 94.5744 288.821 94.5482 289.206 94.4884C293.025 93.894 295.615 90.4696 294.986 86.8434L291.627 67.3626C291.002 63.7363 287.395 61.2764 283.577 61.8708C279.758 62.4652 277.168 65.8896 277.794 69.5159L281.156 88.9967C281.719 92.2566 284.691 94.5744 288.065 94.5744V94.5744Z" fill="#E8F8FC"/>
<path d="M373.429 78.9778C374 78.9778 374.583 78.9105 375.162 78.7722C378.913 77.8675 381.181 74.245 380.228 70.6823L375.177 51.7884C374.225 48.2257 370.41 46.0724 366.662 46.9771C362.91 47.8818 360.639 51.5005 361.592 55.0632L366.642 73.9609C367.45 76.9703 370.3 78.9778 373.429 78.9778Z" fill="#E8F8FC"/>
<path d="M77.3967 116.605C79.7037 110.436 84.4199 105.513 90.3251 102.661C93.0848 101.33 95.0728 98.9034 95.5728 96.0024L96.1279 92.7986C97.1318 86.9779 102.706 82.7012 108.879 83.3816C115.469 84.1068 120.012 89.8939 118.953 96.0398L118.347 99.5464C117.847 102.447 118.918 105.348 121.083 107.446C125.725 111.939 128.539 118.037 128.65 124.579C128.681 126.515 126.906 128.022 124.894 127.712L79.9045 120.71C77.8928 120.399 76.7157 118.429 77.3967 116.605Z" fill="#7C81B9"/>
<path d="M98.2065 119.842C100.021 113.599 103.21 108.436 106.978 105.251C108.737 103.767 110.107 101.244 110.607 98.3464L111.162 95.1426C111.8 91.4266 113.528 88.2265 115.65 86.4658C113.887 84.8171 111.556 83.6769 108.879 83.3816C102.706 82.7049 97.1318 86.9817 96.1279 92.8024L95.5728 96.0062C95.0728 98.9034 93.0848 101.33 90.3251 102.661C84.4199 105.513 79.7037 110.436 77.3967 116.605C76.7157 118.429 77.8928 120.399 79.9045 120.713L99.4426 123.753C98.2498 123.566 97.6711 121.689 98.2065 119.842Z" fill="#64679C"/>
<path d="M224.053 126.646C222.829 120.205 219.014 114.62 213.668 110.9C211.172 109.162 209.621 106.462 209.621 103.524V100.279C209.621 94.3762 204.849 89.2995 198.641 89.0228C192.016 88.7275 186.547 93.7407 186.547 99.9689V103.524C186.547 106.462 184.996 109.162 182.5 110.9C177.154 114.62 173.34 120.205 172.115 126.646C171.757 128.549 173.253 130.313 175.292 130.313H220.88C222.915 130.313 224.415 128.549 224.053 126.646Z" fill="#7C81B9"/>
<path d="M195.63 126.646C196.299 120.205 198.389 114.62 201.318 110.9C202.684 109.162 203.531 106.462 203.531 103.524V99.9689C203.531 96.7127 204.357 93.7968 205.656 91.7892C203.775 90.1742 201.346 89.1424 198.641 89.0228C192.016 88.7275 186.547 93.7407 186.547 99.9689V103.524C186.547 106.462 184.996 109.162 182.5 110.9C177.158 114.62 173.34 120.205 172.119 126.646C171.757 128.549 173.253 130.313 175.292 130.313H197.37C196.252 130.313 195.429 128.549 195.63 126.646Z" fill="#64679C"/>
<path d="M318.772 116.605C316.465 110.436 311.752 105.513 305.843 102.661C303.084 101.33 301.095 98.9034 300.595 96.0024L300.04 92.7986C299.037 86.9779 293.462 82.7012 287.289 83.3816C280.699 84.1068 276.156 89.8939 277.215 96.0398L277.821 99.5464C278.321 102.447 277.25 105.348 275.085 107.446C270.444 111.939 267.629 118.037 267.519 124.579C267.487 126.515 269.267 128.022 271.274 127.712L316.264 120.71C318.275 120.399 319.453 118.429 318.772 116.605Z" fill="#7C81B9"/>
<path d="M290.513 121.001C290.084 114.541 291.21 108.709 293.486 104.586C294.549 102.657 294.934 99.8642 294.434 96.9632L293.828 93.4528C293.265 90.2004 293.604 87.1648 294.584 84.9779C292.47 83.7143 289.935 83.09 287.289 83.3816C280.699 84.1068 276.156 89.8939 277.215 96.0398L277.821 99.5464C278.321 102.447 277.25 105.348 275.085 107.446C270.444 111.939 267.629 118.037 267.519 124.579C267.487 126.515 269.267 128.022 271.274 127.712L292.868 124.351C291.757 124.526 290.639 122.911 290.513 121.001Z" fill="#64679C"/>
<path d="M406.711 98.724C403.853 92.765 398.707 88.2453 392.566 85.8863C389.696 84.7872 387.496 82.533 386.736 79.6843L385.893 76.5366C384.366 70.8206 378.421 67.0149 372.335 68.1962C365.835 69.456 361.832 75.5945 363.446 81.6283L364.367 85.0751C365.127 87.9238 364.328 90.9033 362.359 93.1687C358.143 98.0249 355.891 104.328 356.371 110.855C356.513 112.788 358.422 114.145 360.399 113.67L404.585 103.016C406.557 102.541 407.553 100.485 406.711 98.724V98.724Z" fill="#7C81B9"/>
<path d="M379.173 105.36C378.154 98.9595 378.732 93.0603 380.606 88.7724C381.48 86.7686 381.602 83.9536 380.842 81.1049L379.921 77.6581C379.075 74.5029 379.118 71.4897 379.858 69.2392C377.61 68.114 374.988 67.6803 372.335 68.1962C365.835 69.456 361.832 75.5945 363.446 81.6283L364.367 85.0751C365.127 87.9238 364.328 90.9033 362.359 93.1687C358.139 98.0249 355.891 104.328 356.371 110.859C356.513 112.788 358.422 114.145 360.399 113.67L381.811 108.507C380.728 108.769 379.476 107.251 379.173 105.36V105.36Z" fill="#64679C"/>
<path d="M388.444 106.907L404.585 103.019L388.444 106.907Z" fill="#64679C"/>
<path d="M108.277 203.609L154.613 223.478C154.424 223.905 150.361 251.67 121.961 267.95C111.084 274.186 96.9941 268.145 94.7304 256.268C88.6875 224.585 108.234 203.698 108.277 203.609V203.609Z" fill="#FE505F"/>
<path d="M18.5855 160.374L62.9489 183.96C62.7206 184.367 56.158 211.699 26.3881 225.594C14.9833 230.922 1.49596 223.751 0.318861 211.736C-2.83449 179.675 18.5303 160.464 18.5855 160.374Z" fill="#FE505F"/>
<path d="M257.079 252.541L207.968 240.047C207.834 240.488 192.457 264.414 203.566 294.097C207.826 305.465 222.754 309.263 232.431 301.439C258.244 280.56 257.051 252.642 257.079 252.541V252.541Z" fill="#FE505F"/>
<path d="M362.596 268.317L312.008 263.528C311.949 263.988 300.848 289.958 316.866 317.54C323.008 328.109 338.389 329.567 346.601 320.355C368.517 295.787 362.588 268.421 362.596 268.317V268.317Z" fill="#FE505F"/>
<path d="M463.039 273.465L412.199 272.825C412.183 273.289 403.475 300.071 421.939 326.243C429.013 336.27 444.465 336.464 451.815 326.617C471.424 300.347 463.039 273.565 463.039 273.465V273.465Z" fill="#FE505F"/>
<path d="M245.784 199.302C173.355 180.875 104.643 152.751 41.0211 115.562C43.9106 111.423 46.9341 107.378 50.0874 103.431C112.174 139.615 179.198 166.995 249.827 184.965C328.551 204.996 409.546 212.779 490.785 208.158C491.592 213.029 492.242 217.953 492.73 222.917C409.475 227.755 326.456 219.83 245.784 199.302V199.302Z" fill="#CCE6ED"/>
<path d="M184.497 165.305C137.657 148.957 92.7069 128.272 50.0874 103.431C46.9341 107.378 43.9106 111.423 41.0211 115.562C84.7664 141.132 130.917 162.415 179.028 179.212C176.422 173.918 178.895 167.675 184.497 165.305Z" fill="#81C5E9"/>
<path d="M146.29 183.832C149.924 184.756 153.829 183.073 155.427 179.716L164.911 159.776C166.686 156.041 164.939 151.645 161.006 149.959C157.069 148.265 152.443 149.933 150.664 153.667L141.184 173.604C139.405 177.343 141.157 181.735 145.089 183.425C145.483 183.593 145.889 183.728 146.29 183.832Z" fill="#CCE6ED"/>
<path d="M59.9136 142.231C63.2874 143.088 66.9683 141.712 68.7516 138.687L79.2746 120.837C81.3847 117.259 80.0423 112.735 76.2748 110.735C72.5112 108.732 67.7478 110.006 65.6376 113.584L55.1147 131.435C53.0046 135.013 54.347 139.532 58.1145 141.536C58.6932 141.843 59.2994 142.074 59.9136 142.231Z" fill="#CCE6ED"/>
<path d="M241.662 216.184C245.831 217.246 250.118 214.898 251.232 210.939L257.5 188.733C258.618 184.774 256.142 180.707 251.972 179.645C247.803 178.584 243.52 180.931 242.402 184.89L236.135 207.096C235.017 211.055 237.493 215.127 241.662 216.184Z" fill="#E8F8FC"/>
<path d="M340.069 233.333C340.475 233.437 340.896 233.512 341.325 233.553C345.62 233.961 349.451 230.981 349.876 226.902L352.179 204.999C352.604 200.921 349.47 197.283 345.175 196.876C340.88 196.472 337.054 199.448 336.625 203.526L334.326 225.43C333.94 229.101 336.436 232.409 340.069 233.333V233.333Z" fill="#E8F8FC"/>
<path d="M436.772 239.931C437.386 240.088 438.032 240.174 438.697 240.181C443.016 240.237 446.559 236.959 446.618 232.858L446.917 211.119C446.976 207.022 443.523 203.657 439.209 203.601C434.89 203.549 431.347 206.827 431.288 210.925L430.985 232.663C430.938 236.129 433.402 239.071 436.772 239.931Z" fill="#E8F8FC"/>
<path d="M123.335 229.605C133.948 234.159 139.637 244.424 138.708 254.526C152.105 239.733 154.471 223.8 154.612 223.478L108.277 203.608C108.241 203.676 97.4152 215.269 94.3681 234.248C101.777 227.572 113.15 225.239 123.335 229.605Z" fill="#DE3648"/>
<path d="M18.5855 160.374C18.5461 160.441 6.94839 170.894 2.0983 189.212C9.99545 184.019 20.7861 183.059 29.9745 187.945C40.4267 193.5 45.1508 204.652 42.8714 214.876C58.7405 200.954 62.7718 184.277 62.9489 183.959L18.5855 160.374Z" fill="#DE3648"/>
<path d="M229.108 264.387C239.174 266.948 246.162 274.646 248.095 283.479C257.673 267.393 257.059 252.615 257.079 252.54L207.967 240.047C207.861 240.391 198.397 255.161 199.657 275.819C205.385 266.559 217.246 261.37 229.108 264.387Z" fill="#DE3648"/>
<path d="M335.849 283.479C347.026 284.537 355.679 292.033 358.533 301.401C365.855 283.539 362.592 268.395 362.596 268.316L312.008 263.527C311.965 263.871 305.654 278.705 309.398 297.794C313.902 288.586 324.248 282.38 335.849 283.479V283.479Z" fill="#DE3648"/>
<path d="M438.882 288.683C449.795 288.818 458.897 295.203 462.786 303.913C467.191 286.863 463.038 273.535 463.038 273.464L412.199 272.825C412.187 273.176 407.12 288.881 412.939 307.94C415.608 296.99 426.095 288.522 438.882 288.683V288.683Z" fill="#DE3648"/>
<path d="M278.932 350.352C354.774 331.054 426.675 301.472 493.159 262.279C492.647 268.937 491.84 275.517 490.757 282.01C426.021 318.833 356.407 346.849 283.199 365.474C208.298 384.536 131.484 393.299 54.2643 391.65C49.8945 386.48 45.7412 381.134 41.8399 375.62C121.8 378.543 201.409 370.076 278.932 350.352V350.352Z" fill="#CCE6ED"/>
<path d="M216.853 369.601C216.853 367.208 217.711 365.014 219.136 363.257C160.711 373.653 101.372 377.795 41.8399 375.62C45.7412 381.138 49.8945 386.48 54.2643 391.65C110.706 392.857 166.931 388.491 222.353 378.614C219.069 376.816 216.853 373.455 216.853 369.601V369.601Z" fill="#81C5E9"/>
<path d="M106.434 199.321C110.792 193.309 117.367 189.294 124.599 187.844C127.976 187.167 130.854 185.1 132.275 182.113L133.846 178.812C136.696 172.815 144.003 169.735 150.447 172.161C157.325 174.748 160.459 182.229 157.451 188.558L155.73 192.173C154.309 195.156 154.581 198.577 156.278 201.429C159.911 207.541 161.088 214.88 159.218 221.96C158.667 224.054 156.29 225.194 154.219 224.304L107.887 204.431C105.816 203.545 105.143 201.1 106.434 199.321Z" fill="#7C81B9"/>
<path d="M127.063 208.169C130.937 201.949 135.999 197.287 141.109 194.924C143.495 193.821 145.759 191.489 147.18 188.502L148.747 185.201C150.632 181.245 153.628 178.217 156.593 176.999C155.191 174.89 153.101 173.159 150.443 172.157C144.003 169.735 136.696 172.815 133.842 178.812L132.275 182.113C130.854 185.096 127.972 187.167 124.599 187.844C117.367 189.294 110.788 193.305 106.43 199.321C105.143 201.096 105.812 203.541 107.883 204.431L127.256 212.738C125.996 212.196 125.917 210.009 127.063 208.169Z" fill="#64679C"/>
<path d="M17.1367 155.951C22.0223 150.318 28.9392 146.86 36.2734 146.003C39.6983 145.603 42.7572 143.779 44.4422 140.919L46.3042 137.76C49.6899 132.018 57.2485 129.547 63.4489 132.489C70.0666 135.629 72.5113 143.338 68.9407 149.398L66.8975 152.86C65.2125 155.716 65.1732 159.148 66.6062 162.127C69.669 168.512 70.1807 175.922 67.677 182.823C66.9329 184.864 64.4646 185.803 62.4844 184.748L18.1209 161.163C16.1368 160.108 15.6919 157.619 17.1367 155.951Z" fill="#7C81B9"/>
<path d="M36.7576 171.073C35.5529 170.434 35.6789 168.247 36.9859 166.505C41.4069 160.624 46.8672 156.389 52.1622 154.449C54.6344 153.544 57.0989 151.405 58.7838 148.546L60.6459 145.383C62.8702 141.611 66.1101 138.844 69.1532 137.861C67.9525 135.626 66.0196 133.712 63.4489 132.489C57.2485 129.551 49.6899 132.018 46.3042 137.76L44.4422 140.919C42.7572 143.779 39.6983 145.603 36.2734 146.004C28.9392 146.86 22.0223 150.321 17.1367 155.955C15.6919 157.619 16.1368 160.109 18.1209 161.163L62.4844 184.748L36.7576 171.073Z" fill="#64679C"/>
<path d="M261.366 250.335C262.003 243.06 259.59 236.002 254.964 230.529C252.803 227.972 251.957 224.637 252.846 221.474L253.835 217.975C255.626 211.62 252.028 204.842 245.426 202.842C238.379 200.707 230.962 204.61 229.068 211.317L227.99 215.149C227.096 218.312 224.604 220.798 221.388 221.983C214.502 224.525 208.692 229.497 205.416 236.099C204.448 238.05 205.527 240.361 207.719 240.918L256.83 253.415C259.027 253.972 261.177 252.484 261.366 250.335Z" fill="#7C81B9"/>
<path d="M242.41 249.748L256.83 253.415L242.41 249.748Z" fill="#64679C"/>
<path d="M230.454 242.469C233.143 235.718 237.111 230.282 241.426 227.082C243.442 225.59 245.186 222.917 246.079 219.751L247.158 215.919C248.162 212.36 249.984 209.41 252.047 207.616C250.512 205.425 248.244 203.698 245.426 202.842C238.379 200.707 230.962 204.61 229.072 211.317L227.99 215.149C227.096 218.315 224.604 220.798 221.392 221.983C214.502 224.529 208.692 229.497 205.416 236.099C204.448 238.05 205.527 240.361 207.723 240.921L231.23 246.903C230.017 246.593 229.663 244.465 230.454 242.469Z" fill="#64679C"/>
<path d="M366.454 265.483C365.843 258.204 362.261 251.61 356.761 246.918C354.194 244.727 352.789 241.568 353.132 238.308L353.509 234.704C354.198 228.159 349.49 222.024 342.636 221.063C335.318 220.039 328.665 225.026 327.936 231.938L327.523 235.886C327.18 239.146 325.149 241.979 322.177 243.643C315.811 247.209 310.925 253.008 308.819 260.025C308.193 262.099 309.65 264.215 311.91 264.429L362.501 269.217C364.765 269.434 366.631 267.632 366.454 265.483V265.483Z" fill="#7C81B9"/>
<path d="M336.92 266.795C335.703 266.679 335.011 264.638 335.452 262.548C336.932 255.468 339.861 249.486 343.49 245.662C345.183 243.875 346.423 240.966 346.766 237.706L347.179 233.759C347.549 230.256 348.722 227.183 350.297 225.089C348.38 222.988 345.73 221.497 342.636 221.063C335.318 220.039 328.665 225.026 327.936 231.938L327.523 235.882C327.18 239.146 325.145 241.976 322.177 243.643C315.811 247.209 310.925 253.008 308.819 260.025C308.193 262.099 309.65 264.215 311.91 264.429L362.501 269.217L336.92 266.795Z" fill="#64679C"/>
<path d="M466.621 270.324C465.353 263.124 461.188 256.843 455.287 252.619C452.531 250.649 450.842 247.617 450.889 244.338L450.936 240.72C451.031 234.14 445.783 228.413 438.866 228.016C431.481 227.59 425.304 233.108 425.21 240.05L425.155 244.017C425.107 247.292 423.336 250.282 420.529 252.185C414.51 256.256 410.167 262.432 408.703 269.599C408.27 271.715 409.915 273.704 412.187 273.73L463.022 274.369C465.298 274.395 466.995 272.451 466.621 270.324Z" fill="#7C81B9"/>
<path d="M434.977 269.928C435.823 262.754 438.236 256.555 441.555 252.447C443.102 250.529 444.09 247.531 444.134 244.252L444.189 240.29C444.24 236.667 445.197 233.433 446.673 231.213C444.594 229.377 441.89 228.188 438.866 228.016C431.481 227.59 425.304 233.108 425.21 240.05L425.155 244.017C425.107 247.292 423.336 250.282 420.529 252.185C414.51 256.256 410.167 262.432 408.703 269.599C408.27 271.715 409.911 273.703 412.187 273.73L436.855 274.04C435.615 274.025 434.729 272.047 434.977 269.928Z" fill="#64679C"/>
<path d="M401.77 371.919L352.891 392.88C353.092 393.328 357.375 422.619 387.338 439.793C398.814 446.373 413.675 439.999 416.065 427.475C422.438 394.05 401.821 372.016 401.77 371.919V371.919Z" fill="#5BB5E7"/>
<path d="M496.394 326.31L449.594 351.189C449.834 351.619 456.759 380.453 488.162 395.115C500.193 400.731 514.421 393.168 515.665 380.491C518.987 346.669 496.449 326.404 496.394 326.31V326.31Z" fill="#5BB5E7"/>
<path d="M244.796 423.538L296.604 410.357C296.745 410.824 312.969 436.066 301.245 467.379C296.753 479.371 281.002 483.383 270.798 475.125C243.567 453.098 244.823 423.647 244.796 423.538V423.538Z" fill="#5BB5E7"/>
<path d="M385.417 396.712C386.425 396.54 400.51 387.751 415.14 398.016C410.888 381.713 401.806 371.982 401.77 371.919L352.891 392.88C353.049 393.231 355.734 411.37 371.386 427.464C367.115 415.684 372.764 402.14 385.417 396.712V396.712Z" fill="#4796CD"/>
<path d="M480.1 353.417L483.186 351.776C493.213 346.445 505.181 348.068 513.192 354.625C507.787 336.609 496.434 326.377 496.394 326.31L449.594 351.193C449.767 351.503 453.436 366.633 467.294 380.539C464.896 370.229 469.597 359.002 480.1 353.417V353.417Z" fill="#4796CD"/>
<path d="M275.129 432.395C275.668 432.395 293.037 425.789 305.32 439.404C304.107 422.275 296.702 410.675 296.604 410.361L244.796 423.542C244.819 423.621 244.111 440.657 255.72 458.5C254.677 446.937 262.495 435.61 275.129 432.395V432.395Z" fill="#4796CD"/>
<path d="M133.48 440.186C133.484 440.23 132.405 445.255 132.811 452.971C150.471 461.726 169.379 468.511 189.224 473.024C193.929 452.051 186.898 435.505 186.851 435.131L133.48 440.186Z" fill="#5BB5E7"/>
<path d="M133.48 440.186C133.484 440.23 132.405 445.255 132.811 452.971C136.377 454.743 139.995 456.429 143.664 458.036C147.302 455.094 151.888 453.117 157.049 452.627L164.368 451.935C176.087 450.825 186.532 457.606 190.224 467.438C192.705 449.188 186.894 435.471 186.851 435.131L133.48 440.186Z" fill="#4796CD"/>
<path d="M361.67 351.055C357.836 352.03 353.718 350.255 352.029 346.714L342.026 325.678C340.152 321.738 341.998 317.099 346.148 315.319C350.301 313.536 355.183 315.293 357.053 319.233L367.06 340.266C368.934 344.21 367.087 348.845 362.938 350.625C362.521 350.804 362.096 350.946 361.67 351.055V351.055Z" fill="#E8F8FC"/>
<path d="M261.059 385.186C256.661 386.304 252.142 383.829 250.961 379.65L244.355 356.225C243.174 352.049 245.784 347.757 250.181 346.636C254.583 345.518 259.102 347.997 260.283 352.172L266.889 375.597C268.066 379.777 265.456 384.068 261.059 385.186V385.186Z" fill="#E8F8FC"/>
<path d="M157.246 403.28C156.817 403.388 156.376 403.467 155.919 403.508C151.388 403.938 147.349 400.798 146.896 396.495L144.471 373.384C144.019 369.081 147.329 365.246 151.857 364.819C156.388 364.389 160.427 367.53 160.88 371.833L163.305 394.94C163.71 398.813 161.077 402.304 157.246 403.28V403.28Z" fill="#CCE6ED"/>
<path d="M403.719 367.395C399.121 361.051 392.184 356.819 384.555 355.29C380.992 354.572 377.953 352.393 376.457 349.242L374.799 345.761C371.792 339.432 364.084 336.187 357.289 338.744C350.029 341.473 346.722 349.365 349.899 356.038L351.714 359.851C353.21 363.003 352.927 366.61 351.136 369.62C347.305 376.068 346.061 383.811 348.033 391.28C348.616 393.486 351.12 394.689 353.305 393.751L402.188 372.786C404.369 371.851 405.077 369.272 403.719 367.395V367.395Z" fill="#7C81B9"/>
<path d="M372.504 380.782C369.957 373.56 369.402 366.588 370.721 361.219C371.335 358.715 370.89 355.421 369.394 352.27L367.579 348.456C365.855 344.83 365.292 341.181 365.792 338.37C363.068 337.634 360.1 337.682 357.289 338.744C350.029 341.473 346.722 349.365 349.899 356.038L351.714 359.851C353.21 363.003 352.927 366.61 351.136 369.62C347.305 376.068 346.061 383.81 348.033 391.28C348.616 393.485 351.12 394.689 353.305 393.751L376.284 383.896C375.059 384.42 373.26 382.917 372.504 380.782V380.782Z" fill="#64679C"/>
<path d="M394.712 375.993L402.184 372.786L394.712 375.993Z" fill="#64679C"/>
<path d="M240.272 421.213C239.599 413.538 242.146 406.091 247.024 400.316C249.303 397.62 250.201 394.106 249.256 390.768L248.217 387.078C246.323 380.371 250.122 373.22 257.086 371.111C264.523 368.861 272.345 372.977 274.345 380.053L275.483 384.095C276.428 387.433 279.053 390.054 282.447 391.306C289.714 393.99 295.84 399.231 299.296 406.196C300.316 408.256 299.182 410.693 296.867 411.284L245.06 424.466C242.741 425.053 240.473 423.482 240.272 421.213V421.213Z" fill="#7C81B9"/>
<path d="M266.952 418.892C265.55 419.251 263.956 417.508 263.594 415.28C262.369 407.747 263.204 400.734 265.688 395.568C266.846 393.156 267.046 389.818 266.105 386.48L265.066 382.79C263.826 378.405 264.117 374.076 265.625 371.205C262.968 370.337 260 370.229 257.086 371.111C250.122 373.22 246.323 380.371 248.217 387.078L249.256 390.768C250.201 394.106 249.303 397.62 247.024 400.316C242.146 406.091 239.599 413.538 240.272 421.213C240.473 423.482 242.741 425.053 245.056 424.462L276.447 416.477L266.952 418.892Z" fill="#64679C"/>
<path d="M129.413 437.191C130.055 429.516 133.834 422.555 139.633 417.606C142.342 415.299 143.826 411.964 143.464 408.525L143.062 404.723C142.338 397.818 147.306 391.343 154.538 390.33C162.258 389.25 169.277 394.514 170.041 401.803L170.478 405.968C170.84 409.407 172.985 412.394 176.123 414.151C182.835 417.916 187.988 424.032 190.213 431.434C190.87 433.625 189.335 435.853 186.949 436.081L133.578 441.135C131.193 441.359 129.224 439.46 129.413 437.191Z" fill="#7C81B9"/>
<path d="M154.282 434.84C154.337 427.217 156.293 420.428 159.537 415.725C161.049 413.527 161.789 410.263 161.431 406.824L161.029 403.026C160.573 398.648 161.482 394.536 163.297 391.923C160.746 390.528 157.707 389.889 154.538 390.334C147.306 391.347 142.338 397.818 143.066 404.723L143.463 408.525C143.826 411.964 142.342 415.299 139.637 417.609C133.834 422.555 130.055 429.516 129.413 437.195C129.224 439.464 131.197 441.359 133.582 441.135L156.931 438.926C155.518 439.057 154.266 437.09 154.282 434.84V434.84Z" fill="#64679C"/>
<path d="M176.095 437.109L186.949 436.081L176.095 437.109Z" fill="#64679C"/>
<path d="M61.012 365.881C56.465 365.679 52.607 369.021 52.3983 373.339L51.6621 388.521C55.7564 393.538 60.0593 398.398 64.5629 403.082C66.4014 401.725 67.6297 399.643 67.7438 397.261L68.8697 374.061C69.0784 369.743 65.5629 366.079 61.012 365.881Z" fill="#CCE6ED"/>
<path d="M59.7719 391.493C58.0476 391.497 56.4099 391.822 54.9021 392.398C60.6891 399.187 66.862 405.665 73.397 411.796C73.2041 410.94 73.1175 410.054 73.1608 409.157L73.3616 404.977C73.7159 397.661 67.5746 391.485 59.7719 391.493V391.493Z" fill="#7C81B9"/>
<path d="M54.9021 392.398C57.9807 396.013 61.1616 399.542 64.4566 402.974C64.9645 399.388 66.3384 396.252 68.1926 394.271C65.8857 392.54 62.9725 391.489 59.7719 391.493C58.0515 391.497 56.4138 391.826 54.9021 392.398Z" fill="#64679C"/>
<path d="M452.791 307.17C449.236 308.074 445.35 306.62 443.468 303.427L432.367 284.597C430.142 280.825 431.56 276.055 435.532 273.943C439.504 271.827 444.531 273.173 446.756 276.948L457.857 295.779C460.082 299.551 458.664 304.325 454.692 306.437C454.078 306.762 453.44 307.005 452.791 307.17V307.17Z" fill="#E8F8FC"/>
<path d="M497.922 321.645C492.765 315.701 485.47 312.052 477.73 311.147C474.12 310.729 470.892 308.803 469.116 305.786L467.152 302.452C463.577 296.396 455.605 293.79 449.066 296.893C442.083 300.205 439.504 308.336 443.275 314.729L445.425 318.381C447.204 321.398 447.248 325.013 445.736 328.161C442.504 334.897 441.965 342.711 444.606 349.993C445.39 352.143 447.992 353.137 450.086 352.023L496.882 327.144C498.973 326.03 499.445 323.402 497.922 321.645V321.645Z" fill="#7C81B9"/>
<path d="M467.892 337.611C464.699 330.624 463.53 323.716 464.369 318.254C464.762 315.704 464.026 312.452 462.247 309.439L460.093 305.786C458.03 302.291 457.145 298.665 457.416 295.812C454.657 295.323 451.743 295.622 449.066 296.893C442.083 300.205 439.504 308.34 443.272 314.732L445.425 318.381C447.204 321.398 447.244 325.013 445.736 328.161C442.5 334.897 441.965 342.711 444.606 349.993C445.386 352.146 447.992 353.137 450.082 352.027L471.947 340.4C470.766 341.028 468.833 339.679 467.892 337.611V337.611Z" fill="#64679C"/>
</svg>
