<svg width="768" height="557" viewBox="0 0 768 557" fill="none" xmlns="http://www.w3.org/2000/svg">
<rect x="88" y="67.0208" width="19" height="23" transform="rotate(-18.4747 88 67.0208)" fill="#8DDF95"/>
<path d="M203.05 164L221.381 168.998L215.331 191.188L197 186.19L203.05 164Z" fill="#8DDF95"/>
<rect x="618.483" y="87.5365" width="19" height="23" transform="rotate(-123.487 618.483 87.5365)" fill="#8DDF95"/>
<rect x="541.31" y="485" width="19" height="23" transform="rotate(8.27471 541.31 485)" fill="#8DDF95"/>
<rect x="499" y="41.2528" width="19" height="23" transform="rotate(-32.6579 499 41.2528)" fill="#FFFF00"/>
<rect x="702.31" y="505" width="19" height="23" transform="rotate(8.27471 702.31 505)" fill="#FFFF00"/>
<rect x="48.2212" y="508" width="19" height="23" transform="rotate(18.2982 48.2212 508)" fill="#8DDF95"/>
<ellipse cx="112" cy="126.5" rx="11" ry="11.5" fill="#FFFF00"/>
<ellipse cx="638" cy="120.5" rx="11" ry="11.5" fill="#FFFF00"/>
<ellipse cx="499" cy="138.5" rx="11" ry="11.5" fill="#FFFF00"/>
<ellipse cx="682" cy="351.5" rx="11" ry="11.5" fill="#8BF882"/>
</svg>
