<svg height="512" viewBox="0 0 58 58" width="512" xmlns="http://www.w3.org/2000/svg"><g id="Page-1" fill="none" fill-rule="evenodd"><g id="021---Travel-Guide" fill-rule="nonzero"><path id="Shape" d="m40 50v6c0 1.1045695-.8954305 2-2 2h-34c-2.209139 0-4-1.790861-4-4s1.790861-4 4-4z" fill="#f3d55b"/><path id="Shape" d="m42 2v46c0 1.1045695-.8954305 2-2 2h-36c-2.209139 0-4 1.790861-4 4v-50c0-2.209139 1.790861-4 4-4h36c1.1045695 0 2 .8954305 2 2z" fill="#955ba5"/><path id="Shape" d="m34 55h-26c-.55228475 0-1-.4477153-1-1s.44771525-1 1-1h26c.5522847 0 1 .4477153 1 1s-.4477153 1-1 1z" fill="#f0c419"/><path id="Shape" d="m24 42h-16c-.55228475 0-1-.4477153-1-1s.44771525-1 1-1h16c.5522847 0 1 .4477153 1 1s-.4477153 1-1 1z" fill="#35495e"/><path id="Shape" d="m18 46h-10c-.55228475 0-1-.4477153-1-1s.44771525-1 1-1h10c.5522847 0 1 .4477153 1 1s-.4477153 1-1 1z" fill="#35495e"/><path id="Shape" d="m37 20.62v5.43l-8 6.72v-15.770038c.1193119-.0010025.2378471.0193178.35.060038l7 2.63c.3885864.1451776.6471965.5151891.65.93z" fill="#f29c1f"/><path id="Shape" d="m29 16.999962v15.770038l-.63.53-7 2.64c-.118449.0431426-.2439873.0635001-.37.06v-16.47h1.06l6.59-2.47c.1121529-.0407202.2306881-.0610405.35-.060038z" fill="#f0c419"/><path id="Shape" d="m21 19.53v16.470038c-.1193119.0010025-.2378471-.0193178-.35-.060038l-7.3-2.74c-.1115247-.044134-.2300795-.067845-.35-.07v-16.130038c.1193119-.0010025.2378471.0193178.35.060038l6.59 2.47z" fill="#f29c1f"/><path id="Shape" d="m13 16.999962v16.130038c-.1199205.002155-.2384753.025866-.35.07l-6.3 2.36c-.3075748.1149219-.65196864.0715317-.92142594-.1160904s-.42964192-.4955681-.42857406-.8239096v-14c.00280345-.4148109.26141362-.7848224.65-.93l7-2.63c.1121529-.0407202.2306881-.0610405.35-.060038z" fill="#f0c419"/><path id="Shape" d="m27 10c.001536-2.95372347-2.1468868-5.46919828-5.0644863-5.92973941-2.9175994-.46054114-5.7363892 1.27086247-6.6447451 4.08144503-.9083558 2.81058258.3639583 5.86419538 2.9992314 7.19829438l2.05 5.2c.1073046.2705932.3689073.448275.66.448275s.5526954-.1776818.66-.448275l2.05-5.2c2.0170012-1.0211 3.288824-3.0892617 3.29-5.35z" fill="#e64c3c"/><path id="Shape" d="m48 36c-.0027953 5.1635902-3.9365061 9.4759752-9.0781081 9.9520017-5.1416019.4760266-9.8001723-3.0408566-10.7509187-8.1161647-.9507464-5.0753082 2.1190038-10.0399208 7.084284-11.4571945 4.9652801-1.4172737 10.1931546 1.1788915 12.0647428 5.9913575.4500737 1.157287.6806722 2.3882758.68 3.63z" fill="#67b9cc"/><path id="Shape" d="m48 36c.0006964 3.3026496-1.6293088 6.3926507-4.3555491 8.256815s-6.1970778 2.2620469-9.2744509 1.063185c-1.4868731-3.7146172-.6164234-7.9579479 2.2128144-10.7871856 2.8292377-2.8292378 7.0725684-3.6996875 10.7871856-2.2128144.4391587 1.1762397.6528829 2.4246607.63 3.68z" fill="#2fa8cc"/><path id="Rectangle-path" d="m45.459 41.788h2v7.49h-2z" fill="#35495e" transform="matrix(.738 -.674 .674 .738 -18.552 43.248)"/><circle id="Oval" cx="21" cy="10" fill="#ecf0f1" r="2"/><path id="Shape" d="m38 47c-6.0751322 0-11-4.9248678-11-11s4.9248678-11 11-11 11 4.9248678 11 11c0 2.9173814-1.1589252 5.7152744-3.2218254 7.7781746s-4.8607932 3.2218254-7.7781746 3.2218254zm0-20c-4.9705627 0-9 4.0294373-9 9s4.0294373 9 9 9 9-4.0294373 9-9-4.0294373-9-9-9z" fill="#3f5c6c"/><path id="Shape" d="m56 58c-.5779417.0021548-1.1285599-.2458058-1.51-.68l-6.37-7c-.6326556-.836302-.5119456-2.0192463.2765878-2.7105272s1.977101-.6561368 2.7234122.0805272l6.38 6.94c.5521111.5868274.6981728 1.4476522.3705316 2.1837529-.3276413.7361007-1.0649958 1.2037136-1.8705316 1.1862471z" fill="#955ba5"/></g></g></svg>